<svg width="310" height="175" viewBox="0 0 310 175" fill="none" xmlns="http://www.w3.org/2000/svg">
<g opacity="0.3" clip-path="url(#clip0)">
<path fill-rule="evenodd" clip-rule="evenodd" d="M310 36.5519C310.204 44.7199 306.116 51.2544 297.325 45.741C293.646 43.4947 295.486 40.4317 295.894 36.5519C300.596 31.0385 304.685 32.2637 310 36.5519Z" fill="#DEB905"/>
<path fill-rule="evenodd" clip-rule="evenodd" d="M310 69.8368C308.773 80.4552 302.641 81.272 295.281 74.9418C296.508 64.7318 303.049 61.6688 310 69.8368Z" fill="#DEB905"/>
<path fill-rule="evenodd" clip-rule="evenodd" d="M309.386 100.671C309.591 107.41 306.933 113.944 298.961 109.86C294.872 107.614 296.099 105.368 296.508 101.284C301.005 95.9743 303.867 96.9953 309.386 100.671Z" fill="#DEB905"/>
<path fill-rule="evenodd" clip-rule="evenodd" d="M309.387 133.343C308.364 142.736 303.458 145.595 295.895 139.061C295.895 129.259 302.027 127.217 309.387 133.343Z" fill="#DEB905"/>
<path fill-rule="evenodd" clip-rule="evenodd" d="M308.16 164.79C308.364 173.162 304.276 176.021 297.325 171.12C297.325 162.544 301.005 160.298 308.16 164.79Z" fill="#DEB905"/>
<path fill-rule="evenodd" clip-rule="evenodd" d="M294.668 84.5389C294.668 91.0734 294.463 91.8902 289.557 95.9742C285.264 95.9742 280.767 94.9532 278.723 90.8692C278.314 79.4339 286.9 78.8213 294.668 84.5389Z" fill="#DEB905"/>
<path fill-rule="evenodd" clip-rule="evenodd" d="M294.055 52.6839C294.463 63.7108 287.513 65.957 279.336 59.8309C279.336 48.5999 285.264 46.3537 294.055 52.6839Z" fill="#DEB905"/>
<path fill-rule="evenodd" clip-rule="evenodd" d="M293.441 117.824C292.01 127.626 286.9 128.034 279.949 122.316C281.38 112.923 286.491 112.106 293.441 117.824Z" fill="#DEB905"/>
<path fill-rule="evenodd" clip-rule="evenodd" d="M292.828 149.883C291.601 158.868 287.309 159.889 280.562 154.376C281.789 145.595 286.082 144.37 292.828 149.883Z" fill="#DEB905"/>
<path fill-rule="evenodd" clip-rule="evenodd" d="M278.723 69.2239C277.496 80.0466 270.341 82.497 262.778 74.9415C263.595 64.5273 270.955 61.6685 278.723 69.2239Z" fill="#DEB905"/>
<path fill-rule="evenodd" clip-rule="evenodd" d="M278.723 101.896C277.905 110.064 267.888 117.211 263.391 107.001C263.186 95.7702 271.568 93.7282 278.723 101.896Z" fill="#DEB905"/>
<path fill-rule="evenodd" clip-rule="evenodd" d="M277.496 37.1645C276.679 43.9032 272.999 50.4376 266.048 44.5158C262.982 41.8612 264.004 42.678 264.617 37.7771C269.319 32.2637 271.159 32.6721 277.496 37.1645Z" fill="#DEB905"/>
<path fill-rule="evenodd" clip-rule="evenodd" d="M276.679 133.956C275.452 142.941 271.159 144.166 264.413 138.448C265.844 129.463 269.933 128.442 276.679 133.956Z" fill="#DEB905"/>
<path fill-rule="evenodd" clip-rule="evenodd" d="M276.678 166.015C275.861 171.733 272.999 177.246 266.662 172.754C263.595 171.529 263.186 169.283 265.026 166.015C269.728 160.502 271.568 161.523 276.678 166.015Z" fill="#DEB905"/>
<path fill-rule="evenodd" clip-rule="evenodd" d="M261.96 52.0711C262.369 63.3022 256.236 66.7736 247.241 59.8307C247.241 49.0081 253.17 46.1493 261.96 52.0711Z" fill="#DEB905"/>
<path fill-rule="evenodd" clip-rule="evenodd" d="M261.96 83.9263C262.369 93.7279 257.054 99.4456 247.855 92.9111C242.335 81.4759 255.009 79.4339 261.96 83.9263Z" fill="#DEB905"/>
<path fill-rule="evenodd" clip-rule="evenodd" d="M261.96 117.416C262.164 123.95 256.236 132.731 249.286 125.584C245.197 121.295 248.672 115.986 251.739 112.923C256.645 113.331 258.28 114.148 261.96 117.416Z" fill="#DEB905"/>
<path fill-rule="evenodd" clip-rule="evenodd" d="M260.733 149.271C260.938 157.847 255.623 160.706 248.672 155.805C248.468 147.433 253.374 141.919 260.733 149.271Z" fill="#DEB905"/>
<path fill-rule="evenodd" clip-rule="evenodd" d="M246.628 37.9813C245.606 47.9871 230.274 52.4796 231.296 40.2275C232.114 30.2217 241.722 31.0385 246.628 37.9813Z" fill="#DEB905"/>
<path fill-rule="evenodd" clip-rule="evenodd" d="M246.015 101.283C244.788 111.698 239.064 113.74 231.296 107.001C231.092 96.3826 239.064 94.3406 246.015 101.283Z" fill="#DEB905"/>
<path fill-rule="evenodd" clip-rule="evenodd" d="M246.015 133.343C244.993 143.349 239.269 146.004 231.296 139.878C231.296 130.076 238.86 124.767 246.015 133.343Z" fill="#DEB905"/>
<path fill-rule="evenodd" clip-rule="evenodd" d="M245.401 68.6115C245.81 78.8215 239.882 81.6803 231.909 75.1459C231.705 66.1611 238.655 62.077 245.401 68.6115Z" fill="#DEB905"/>
<path fill-rule="evenodd" clip-rule="evenodd" d="M243.357 165.403C243.562 173.162 240.086 175.613 233.749 171.12C233.749 164.994 237.838 159.685 243.357 165.403Z" fill="#DEB905"/>
<path fill-rule="evenodd" clip-rule="evenodd" d="M230.07 53.9089C228.639 66.5693 212.285 64.9357 216.578 53.5005C219.031 46.5577 226.594 49.2123 230.07 53.9089Z" fill="#DEB905"/>
<path fill-rule="evenodd" clip-rule="evenodd" d="M230.07 116.599C229.047 126.4 224.141 130.893 215.351 124.154C215.147 114.352 222.301 109.043 230.07 116.599Z" fill="#DEB905"/>
<path fill-rule="evenodd" clip-rule="evenodd" d="M229.252 149.883C228.434 155.193 228.23 159.072 221.688 158.051C220.257 157.847 216.373 157.03 216.373 154.988C216.169 144.983 222.301 143.962 229.252 149.883Z" fill="#DEB905"/>
<path fill-rule="evenodd" clip-rule="evenodd" d="M228.639 85.356C228.639 90.6652 227.003 95.566 220.87 93.9324C211.467 91.482 218.417 78.4132 228.639 85.356Z" fill="#DEB905"/>
<path fill-rule="evenodd" clip-rule="evenodd" d="M213.307 37.1645C213.511 44.3115 205.743 52.6837 200.224 43.9031C194.091 34.3057 207.583 29.4048 213.307 37.1645Z" fill="#DEB905"/>
<path fill-rule="evenodd" clip-rule="evenodd" d="M213.307 133.343C212.285 142.736 207.583 145.595 199.815 139.061C199.406 129.055 206.97 128.034 213.307 133.343Z" fill="#DEB905"/>
<path fill-rule="evenodd" clip-rule="evenodd" d="M212.693 69.2239C212.693 74.5331 211.058 79.4339 205.13 77.8003C195.726 75.3499 202.268 62.2811 212.693 69.2239Z" fill="#DEB905"/>
<path fill-rule="evenodd" clip-rule="evenodd" d="M212.693 101.284C212.898 110.064 207.787 112.923 200.428 107.614C200.428 99.4458 205.334 93.9324 212.693 101.284Z" fill="#DEB905"/>
<path fill-rule="evenodd" clip-rule="evenodd" d="M212.693 166.015C211.467 174.796 207.174 176.021 200.428 170.508C201.655 161.523 205.947 160.298 212.693 166.015Z" fill="#DEB905"/>
<path fill-rule="evenodd" clip-rule="evenodd" d="M196.544 52.0711C196.135 56.7678 196.135 58.1972 193.273 62.2812C191.638 62.2812 183.665 62.2812 183.665 59.014C183.665 50.8459 189.798 45.1283 196.544 52.0711Z" fill="#DEB905"/>
<path fill-rule="evenodd" clip-rule="evenodd" d="M196.544 85.3561C195.726 92.7073 191.842 97.4039 184.279 91.6863C184.483 83.1099 189.389 78.0048 196.544 85.3561Z" fill="#DEB905"/>
<path fill-rule="evenodd" clip-rule="evenodd" d="M196.544 148.658C196.953 157.643 192.251 161.319 184.279 155.805C184.483 148.25 189.798 141.715 196.544 148.658Z" fill="#DEB905"/>
<path fill-rule="evenodd" clip-rule="evenodd" d="M195.317 117.824C195.317 124.154 191.842 126.4 186.323 122.929C186.323 117.415 189.798 112.31 195.317 117.824Z" fill="#DEB905"/>
<path fill-rule="evenodd" clip-rule="evenodd" d="M181.212 37.9813C180.395 44.3115 172.626 51.4585 168.333 43.0863C169.356 35.1225 174.671 30.2217 181.212 37.9813Z" fill="#DEB905"/>
<path fill-rule="evenodd" clip-rule="evenodd" d="M181.212 69.2239C181.416 79.4339 166.289 81.4759 167.924 71.4701C169.151 64.7315 178.146 62.6895 181.212 69.2239Z" fill="#DEB905"/>
<path fill-rule="evenodd" clip-rule="evenodd" d="M181.212 166.015C180.599 170.712 181.008 171.324 177.328 175C175.693 175 168.334 174.796 168.334 171.733C167.925 164.79 177.124 157.643 181.212 166.015Z" fill="#DEB905"/>
<path fill-rule="evenodd" clip-rule="evenodd" d="M165.267 53.2964C165.267 59.014 161.792 66.5694 154.637 61.4644C150.957 58.8098 151.775 58.6056 152.388 53.909C157.09 48.3956 158.93 48.804 165.267 53.2964Z" fill="#DEB905"/>
<path fill-rule="evenodd" clip-rule="evenodd" d="M163.836 85.9685C163.427 89.2357 163.018 93.9323 158.521 93.5239C157.09 93.5239 153.001 92.2987 153.001 90.4609C153.001 82.4971 158.112 80.0467 163.836 85.9685Z" fill="#DEB905"/>
<path fill-rule="evenodd" clip-rule="evenodd" d="M163.836 149.883C163.836 157.439 159.339 159.685 153.001 155.601C153.001 147.841 157.09 142.94 163.836 149.883Z" fill="#DEB905"/>
<path fill-rule="evenodd" clip-rule="evenodd" d="M163.223 117.824C163.223 124.358 153.615 127.421 153.615 121.704C154.024 114.761 158.112 114.352 163.223 117.824Z" fill="#DEB905"/>
<path fill-rule="evenodd" clip-rule="evenodd" d="M149.118 37.9812C147.687 47.7829 142.576 48.1913 135.625 42.4737C137.056 32.672 142.372 32.0594 149.118 37.9812Z" fill="#DEB905"/>
<path fill-rule="evenodd" clip-rule="evenodd" d="M147.891 69.8366C147.482 73.1038 147.073 77.8005 142.576 77.3921C141.145 77.3921 137.056 76.1669 137.056 74.329C137.056 66.161 141.963 65.3442 147.891 69.8366Z" fill="#DEB905"/>
<path fill-rule="evenodd" clip-rule="evenodd" d="M147.891 133.956C147.891 141.511 143.394 143.757 137.056 139.673C137.056 131.71 140.94 127.013 147.891 133.956Z" fill="#DEB905"/>
<path fill-rule="evenodd" clip-rule="evenodd" d="M147.278 101.283C147.482 109.043 144.007 111.493 137.67 107.001C137.67 100.875 141.554 95.5658 147.278 101.283Z" fill="#DEB905"/>
<path fill-rule="evenodd" clip-rule="evenodd" d="M131.946 53.9091C131.128 59.2183 124.995 66.1611 121.111 58.4015C121.111 50.4376 126.426 48.3956 131.946 53.9091Z" fill="#DEB905"/>
<path fill-rule="evenodd" clip-rule="evenodd" d="M131.946 117.415C132.15 126.604 127.653 128.442 120.294 122.52C119.885 113.74 126.017 113.74 131.946 117.415Z" fill="#DEB905"/>
<path fill-rule="evenodd" clip-rule="evenodd" d="M131.333 85.3559C131.537 93.1156 128.062 95.566 121.725 91.0736C121.725 84.9475 125.609 79.6383 131.333 85.3559Z" fill="#DEB905"/>
<path fill-rule="evenodd" clip-rule="evenodd" d="M131.333 149.883C131.333 156.418 121.725 159.481 121.725 153.763C122.133 146.616 126.018 146.412 131.333 149.883Z" fill="#DEB905"/>
<path fill-rule="evenodd" clip-rule="evenodd" d="M117.227 4.69661C117.636 14.7024 111.708 17.5613 103.735 11.8436C103.735 2.6546 109.459 -3.06302 117.227 4.69661Z" fill="#DEB905"/>
<path fill-rule="evenodd" clip-rule="evenodd" d="M117.227 166.015C117.227 172.141 111.708 178.063 105.984 172.345C103.531 169.895 104.757 167.649 104.962 164.79C109.664 158.664 112.526 161.931 117.227 166.015Z" fill="#DEB905"/>
<path fill-rule="evenodd" clip-rule="evenodd" d="M115.796 36.5518C116.001 43.2904 115.183 46.5576 108.028 45.5366C100.055 38.798 107.415 31.651 115.796 36.5518Z" fill="#DEB905"/>
<path fill-rule="evenodd" clip-rule="evenodd" d="M115.796 69.8368C114.978 75.146 108.846 82.0888 104.962 74.3292C105.166 66.5696 110.277 64.3234 115.796 69.8368Z" fill="#DEB905"/>
<path fill-rule="evenodd" clip-rule="evenodd" d="M115.796 100.671C116.001 107.001 114.365 112.719 107.006 109.452C99.2377 105.98 108.437 93.3197 115.796 100.671Z" fill="#DEB905"/>
<path fill-rule="evenodd" clip-rule="evenodd" d="M115.796 133.956C114.978 139.265 108.846 146.208 104.962 138.448C105.166 130.484 110.277 128.442 115.796 133.956Z" fill="#DEB905"/>
<path fill-rule="evenodd" clip-rule="evenodd" d="M101.078 149.883C101.282 158.051 95.9669 160.706 88.8121 156.214C83.7015 145.799 94.536 144.166 101.078 149.883Z" fill="#DEB905"/>
<path fill-rule="evenodd" clip-rule="evenodd" d="M100.464 20.6243C100.669 26.3419 94.1273 36.5519 89.0167 27.3629C83.7016 17.9697 95.1494 17.3571 100.464 20.6243Z" fill="#DEB905"/>
<path fill-rule="evenodd" clip-rule="evenodd" d="M100.464 85.9685C99.4423 93.3197 95.9671 96.7912 88.8122 92.2987C84.1104 82.4971 94.7405 81.0677 100.464 85.9685Z" fill="#DEB905"/>
<path fill-rule="evenodd" clip-rule="evenodd" d="M99.8511 53.2964C100.056 61.4645 95.5582 63.7107 89.0166 59.0141C89.0166 50.6418 92.4918 49.0082 99.8511 53.2964Z" fill="#DEB905"/>
<path fill-rule="evenodd" clip-rule="evenodd" d="M99.8511 117.415C99.8511 125.175 95.7626 128.034 89.0166 123.746C89.0166 115.169 92.083 112.719 99.8511 117.415Z" fill="#DEB905"/>
<path fill-rule="evenodd" clip-rule="evenodd" d="M85.1325 4.69667C85.3369 11.4353 82.6794 17.9697 74.7068 13.8857C66.121 9.39328 76.3422 -4.08396 85.1325 4.69667Z" fill="#DEB905"/>
<path fill-rule="evenodd" clip-rule="evenodd" d="M85.1325 133.956C85.1325 135.589 85.1325 142.328 82.4749 142.328C80.6351 142.532 72.2537 142.532 72.2537 139.265C71.436 129.667 79.2041 127.013 85.1325 133.956Z" fill="#DEB905"/>
<path fill-rule="evenodd" clip-rule="evenodd" d="M84.5192 69.2241C83.7015 76.5753 79.613 81.4761 72.4582 75.5543C72.2537 66.3653 76.5466 64.119 84.5192 69.2241Z" fill="#DEB905"/>
<path fill-rule="evenodd" clip-rule="evenodd" d="M83.9059 36.5519C84.1103 44.7199 80.6351 48.3955 73.0714 43.4947C72.8669 35.1225 75.5245 31.651 83.9059 36.5519Z" fill="#DEB905"/>
<path fill-rule="evenodd" clip-rule="evenodd" d="M83.906 100.671C84.1104 108.839 80.6352 112.515 73.0715 107.818C69.1874 100.058 78.591 95.5659 83.906 100.671Z" fill="#DEB905"/>
<path fill-rule="evenodd" clip-rule="evenodd" d="M83.906 165.403C84.1105 174.592 79.6131 176.43 72.4583 170.508C72.0494 163.157 78.3866 160.094 83.906 165.403Z" fill="#DEB905"/>
<path fill-rule="evenodd" clip-rule="evenodd" d="M68.983 53.909C67.552 63.9149 62.4414 64.3233 55.491 59.0141C55.6954 48.5998 62.6458 48.3956 68.983 53.909Z" fill="#DEB905"/>
<path fill-rule="evenodd" clip-rule="evenodd" d="M68.983 117.415C69.3918 128.238 63.0547 129.055 55.491 123.133C55.6954 112.923 61.0104 111.698 68.983 117.415Z" fill="#DEB905"/>
<path fill-rule="evenodd" clip-rule="evenodd" d="M68.3697 20.6242C68.5742 29.6091 64.0768 33.0805 56.1042 27.5671C56.3087 18.1738 59.9883 15.1108 68.3697 20.6242Z" fill="#DEB905"/>
<path fill-rule="evenodd" clip-rule="evenodd" d="M68.3697 85.9684C67.3476 92.2986 64.2812 97.1994 57.9441 92.5028C54.8777 90.2566 56.1042 90.4608 56.7175 85.9684C61.4193 80.455 63.2591 81.6802 68.3697 85.9684Z" fill="#DEB905"/>
<path fill-rule="evenodd" clip-rule="evenodd" d="M67.7565 148.658C67.9609 154.784 66.3255 160.706 58.9662 157.439C50.9936 153.967 60.3971 141.307 67.7565 148.658Z" fill="#DEB905"/>
<path fill-rule="evenodd" clip-rule="evenodd" d="M53.0378 5.10493C52.0157 13.273 47.9272 17.7654 40.159 12.252C35.2528 2.65452 46.7006 -8.60691e-05 53.0378 5.10493Z" fill="#DEB905"/>
<path fill-rule="evenodd" clip-rule="evenodd" d="M53.0377 36.5519C53.2421 46.5577 47.5182 49.6208 39.5457 43.4947C39.5457 34.7141 45.2696 28.9965 53.0377 36.5519Z" fill="#DEB905"/>
<path fill-rule="evenodd" clip-rule="evenodd" d="M53.0378 101.284C52.629 104.959 53.8555 109.247 49.1538 110.677C46.9051 111.289 39.5458 109.452 39.5458 106.389C39.3414 96.9954 46.4962 94.7492 53.0378 101.284Z" fill="#DEB905"/>
<path fill-rule="evenodd" clip-rule="evenodd" d="M52.4245 69.224C51.8112 74.7375 44.6563 84.1307 40.1589 74.9417C40.1589 65.7526 45.0651 64.3232 52.4245 69.224Z" fill="#DEB905"/>
<path fill-rule="evenodd" clip-rule="evenodd" d="M52.4247 133.956C51.4025 141.307 47.9273 144.778 40.9769 140.286C35.8663 130.688 46.7008 129.055 52.4247 133.956Z" fill="#DEB905"/>
<path fill-rule="evenodd" clip-rule="evenodd" d="M51.1981 166.015C51.1981 173.979 41.1813 173.979 42.4078 167.036C43.4299 161.319 47.7229 163.565 51.1981 166.015Z" fill="#DEB905"/>
<path fill-rule="evenodd" clip-rule="evenodd" d="M37.7059 21.2367C36.6838 29.4048 35.0484 30.8342 26.8714 30.8342C18.4899 21.0325 28.5068 12.0477 37.7059 21.2367Z" fill="#DEB905"/>
<path fill-rule="evenodd" clip-rule="evenodd" d="M37.0926 85.3559C36.0705 96.587 31.1643 97.608 22.9873 90.4609C22.9873 80.4551 30.3466 79.6383 37.0926 85.3559Z" fill="#DEB905"/>
<path fill-rule="evenodd" clip-rule="evenodd" d="M36.2749 52.6837C36.4793 59.8308 33.0041 66.7736 25.6448 60.4434C22.1696 57.3803 23.1917 54.9299 25.8492 51.6627C29.9377 47.3745 32.1864 49.6207 36.2749 52.6837Z" fill="#DEB905"/>
<path fill-rule="evenodd" clip-rule="evenodd" d="M36.275 117.824C35.4573 124.154 32.1865 129.055 25.8493 124.358C22.783 122.112 24.0095 122.521 24.6228 117.824C29.529 112.515 31.1644 113.74 36.275 117.824Z" fill="#DEB905"/>
<path fill-rule="evenodd" clip-rule="evenodd" d="M35.0484 149.271C35.0484 156.826 31.3688 158.664 25.4404 154.376C25.4404 148.25 29.9378 143.961 35.0484 149.271Z" fill="#DEB905"/>
<path fill-rule="evenodd" clip-rule="evenodd" d="M22.1698 3.8797C21.5565 11.8435 16.2414 21.8494 7.86003 12.8645C5.40693 10.2099 5.81579 5.51331 8.26889 2.6545C12.9707 -2.45052 17.8768 0.816692 22.1698 3.8797Z" fill="#DEB905"/>
<path fill-rule="evenodd" clip-rule="evenodd" d="M20.943 37.1643C21.1474 44.5156 16.8545 50.2332 9.49523 44.924C6.42886 42.6778 7.85983 40.6358 8.26868 37.1643C12.766 31.8551 15.628 32.8761 20.943 37.1643Z" fill="#DEB905"/>
<path fill-rule="evenodd" clip-rule="evenodd" d="M20.9432 68.6115C21.1476 76.5753 16.8547 83.7223 9.0866 76.9837C1.52288 70.4493 13.1751 60.8518 20.9432 68.6115Z" fill="#DEB905"/>
<path fill-rule="evenodd" clip-rule="evenodd" d="M20.33 101.284C19.7167 107.001 12.9707 115.986 8.06445 107.001C8.06445 97.8122 12.9707 96.3828 20.33 101.284Z" fill="#DEB905"/>
<path fill-rule="evenodd" clip-rule="evenodd" d="M19.7166 133.956C19.5121 140.898 15.0148 143.349 9.49533 139.673C5.20241 131.709 14.6059 128.851 19.7166 133.956Z" fill="#DEB905"/>
<path fill-rule="evenodd" clip-rule="evenodd" d="M19.1033 166.015C19.1033 172.55 9.49536 175.408 9.49536 169.895C9.90421 162.544 13.9927 162.34 19.1033 166.015Z" fill="#DEB905"/>
<path fill-rule="evenodd" clip-rule="evenodd" d="M6.22458 21.8496C5.61131 26.7504 5.81573 27.363 2.34051 31.447C-1.9524 31.6512 -7.47187 31.8554 -8.69841 26.9546C-10.9471 15.9278 0.296269 13.8858 6.22458 21.8496Z" fill="#DEB905"/>
<path fill-rule="evenodd" clip-rule="evenodd" d="M5.61114 53.9089C4.3846 63.9147 -1.54371 65.5483 -9.10742 59.6265C-9.10742 49.0081 -1.13487 46.1493 5.61114 53.9089Z" fill="#DEB905"/>
<path fill-rule="evenodd" clip-rule="evenodd" d="M4.38478 84.5391C4.58921 93.5239 0.091857 96.9953 -7.67629 91.4819C-7.88072 82.2929 -3.79221 79.6383 4.38478 84.5391Z" fill="#DEB905"/>
<path fill-rule="evenodd" clip-rule="evenodd" d="M3.77134 116.599C3.97576 124.971 -0.112726 128.034 -7.06317 122.929C-7.2676 116.599 -2.36141 110.473 3.77134 116.599Z" fill="#DEB905"/>
<path fill-rule="evenodd" clip-rule="evenodd" d="M2.95369 149.271C2.95369 156.826 -0.72597 158.664 -6.6543 154.376C-6.44987 148.454 -2.15694 143.962 2.95369 149.271Z" fill="#DEB905"/>
</g>
<defs>
<clipPath id="clip0">
<rect width="462" height="175" fill="white" transform="translate(-152)"/>
</clipPath>
</defs>
</svg>
