<svg width="333" height="171" viewBox="0 0 333 171" fill="none" xmlns="http://www.w3.org/2000/svg">
<g opacity="0.3" clip-path="url(#clip0)">
<path fill-rule="evenodd" clip-rule="evenodd" d="M340.245 50.8811C339.846 55.4704 339.846 56.8671 337.053 60.8578C335.456 60.8578 327.673 60.8578 327.673 57.6653C327.673 49.6839 333.66 44.097 340.245 50.8811Z" fill="#DEB905"/>
<path fill-rule="evenodd" clip-rule="evenodd" d="M340.245 83.405C339.447 90.5882 335.656 95.1774 328.272 89.5905C328.472 81.2101 333.261 76.2218 340.245 83.405Z" fill="#DEB905"/>
<path fill-rule="evenodd" clip-rule="evenodd" d="M340.245 145.26C340.645 154.04 336.055 157.631 328.272 152.244C328.472 144.861 333.66 138.476 340.245 145.26Z" fill="#DEB905"/>
<path fill-rule="evenodd" clip-rule="evenodd" d="M339.048 115.131C339.048 121.316 335.656 123.511 330.268 120.119C330.268 114.732 333.66 109.743 339.048 115.131Z" fill="#DEB905"/>
<path fill-rule="evenodd" clip-rule="evenodd" d="M325.279 37.1132C324.48 43.2987 316.897 50.2824 312.707 42.1015C313.704 34.3197 318.893 29.5309 325.279 37.1132Z" fill="#DEB905"/>
<path fill-rule="evenodd" clip-rule="evenodd" d="M325.279 67.6417C325.478 77.6183 310.711 79.6137 312.307 69.8365C313.505 63.2519 322.285 61.2566 325.279 67.6417Z" fill="#DEB905"/>
<path fill-rule="evenodd" clip-rule="evenodd" d="M325.279 162.22C324.68 166.81 325.079 167.408 321.487 171C319.891 171 312.706 170.8 312.706 167.807C312.307 161.023 321.287 154.04 325.279 162.22Z" fill="#DEB905"/>
<path fill-rule="evenodd" clip-rule="evenodd" d="M309.713 52.0782C309.713 57.6651 306.321 65.0479 299.336 60.0595C295.744 57.4656 296.542 57.2661 297.141 52.6768C301.731 47.2894 303.527 47.6885 309.713 52.0782Z" fill="#DEB905"/>
<path fill-rule="evenodd" clip-rule="evenodd" d="M308.316 84.0036C307.917 87.1961 307.518 91.7854 303.128 91.3863C301.731 91.3863 297.74 90.1891 297.74 88.3933C297.74 80.6115 302.729 78.2171 308.316 84.0036Z" fill="#DEB905"/>
<path fill-rule="evenodd" clip-rule="evenodd" d="M308.316 146.457C308.316 153.84 303.926 156.035 297.74 152.044C297.74 144.462 301.731 139.673 308.316 146.457Z" fill="#DEB905"/>
<path fill-rule="evenodd" clip-rule="evenodd" d="M307.718 115.131C307.718 121.516 298.338 124.509 298.338 118.922C298.737 112.138 302.729 111.739 307.718 115.131Z" fill="#DEB905"/>
<path fill-rule="evenodd" clip-rule="evenodd" d="M293.948 37.1132C292.551 46.6908 287.562 47.0899 280.777 41.5029C282.174 31.9254 287.363 31.3268 293.948 37.1132Z" fill="#DEB905"/>
<path fill-rule="evenodd" clip-rule="evenodd" d="M292.751 68.2404C292.352 71.433 291.953 76.0223 287.562 75.6232C286.165 75.6232 282.174 74.426 282.174 72.6302C282.174 64.6488 286.964 63.8507 292.751 68.2404Z" fill="#DEB905"/>
<path fill-rule="evenodd" clip-rule="evenodd" d="M292.751 130.894C292.751 138.276 288.36 140.471 282.174 136.481C282.174 128.699 285.966 124.11 292.751 130.894Z" fill="#DEB905"/>
<path fill-rule="evenodd" clip-rule="evenodd" d="M292.152 98.9685C292.352 106.551 288.959 108.945 282.773 104.555C282.773 98.5695 286.565 93.3816 292.152 98.9685Z" fill="#DEB905"/>
<path fill-rule="evenodd" clip-rule="evenodd" d="M277.185 52.6768C276.387 57.8646 270.4 64.6488 266.609 57.0665C266.609 49.2847 271.797 47.2894 277.185 52.6768Z" fill="#DEB905"/>
<path fill-rule="evenodd" clip-rule="evenodd" d="M277.185 114.732C277.385 123.711 272.995 125.506 265.811 119.72C265.411 111.14 271.398 111.14 277.185 114.732Z" fill="#DEB905"/>
<path fill-rule="evenodd" clip-rule="evenodd" d="M276.587 83.4051C276.786 90.9873 273.394 93.3817 267.207 88.992C267.207 83.006 270.999 77.8181 276.587 83.4051Z" fill="#DEB905"/>
<path fill-rule="evenodd" clip-rule="evenodd" d="M276.587 146.457C276.587 152.842 267.207 155.835 267.207 150.249C267.607 143.265 271.398 143.065 276.587 146.457Z" fill="#DEB905"/>
<path fill-rule="evenodd" clip-rule="evenodd" d="M262.817 4.58927C263.216 14.3664 257.429 17.1599 249.646 11.5729C249.646 2.59394 255.234 -2.993 262.817 4.58927Z" fill="#DEB905"/>
<path fill-rule="evenodd" clip-rule="evenodd" d="M262.817 162.221C262.817 168.207 257.429 173.993 251.841 168.406C249.447 166.012 250.644 163.817 250.844 161.023C255.433 155.037 258.227 158.23 262.817 162.221Z" fill="#DEB905"/>
<path fill-rule="evenodd" clip-rule="evenodd" d="M261.42 35.7164C261.62 42.301 260.822 45.4935 253.837 44.4959C246.054 37.9113 253.238 30.9276 261.42 35.7164Z" fill="#DEB905"/>
<path fill-rule="evenodd" clip-rule="evenodd" d="M261.42 68.2405C260.622 73.4284 254.635 80.2125 250.844 72.6302C251.043 65.048 256.032 62.8531 261.42 68.2405Z" fill="#DEB905"/>
<path fill-rule="evenodd" clip-rule="evenodd" d="M261.42 98.3701C261.62 104.556 260.023 110.143 252.839 106.95C245.256 103.558 254.236 91.1869 261.42 98.3701Z" fill="#DEB905"/>
<path fill-rule="evenodd" clip-rule="evenodd" d="M261.42 130.894C260.622 136.082 254.635 142.866 250.844 135.284C251.043 127.502 256.032 125.506 261.42 130.894Z" fill="#DEB905"/>
<path fill-rule="evenodd" clip-rule="evenodd" d="M247.052 146.457C247.252 154.439 242.063 157.033 235.079 152.643C230.09 142.467 240.666 140.87 247.052 146.457Z" fill="#DEB905"/>
<path fill-rule="evenodd" clip-rule="evenodd" d="M246.453 20.1528C246.653 25.7398 240.267 35.7164 235.278 26.7374C230.09 17.5589 241.265 16.9603 246.453 20.1528Z" fill="#DEB905"/>
<path fill-rule="evenodd" clip-rule="evenodd" d="M246.453 84.0036C245.456 91.1868 242.063 94.5789 235.079 90.1891C230.489 80.6116 240.866 79.2148 246.453 84.0036Z" fill="#DEB905"/>
<path fill-rule="evenodd" clip-rule="evenodd" d="M245.855 52.078C246.054 60.0594 241.664 62.2542 235.278 57.665C235.278 49.4841 238.671 47.8878 245.855 52.078Z" fill="#DEB905"/>
<path fill-rule="evenodd" clip-rule="evenodd" d="M245.855 114.732C245.855 122.314 241.864 125.107 235.278 120.917C235.278 112.537 238.271 110.142 245.855 114.732Z" fill="#DEB905"/>
<path fill-rule="evenodd" clip-rule="evenodd" d="M231.487 4.58917C231.686 11.1738 229.092 17.5588 221.309 13.5682C212.928 9.17844 222.906 -3.99076 231.487 4.58917Z" fill="#DEB905"/>
<path fill-rule="evenodd" clip-rule="evenodd" d="M231.487 130.894C231.487 132.49 231.487 139.075 228.892 139.075C227.096 139.274 218.914 139.274 218.914 136.082C218.116 126.704 225.699 124.11 231.487 130.894Z" fill="#DEB905"/>
<path fill-rule="evenodd" clip-rule="evenodd" d="M230.888 67.6419C230.09 74.8251 226.099 79.6139 219.114 73.8274C218.915 64.8484 223.105 62.6536 230.888 67.6419Z" fill="#DEB905"/>
<path fill-rule="evenodd" clip-rule="evenodd" d="M230.289 35.7165C230.489 43.6979 227.096 47.2895 219.713 42.5007C219.513 34.3198 222.107 30.9277 230.289 35.7165Z" fill="#DEB905"/>
<path fill-rule="evenodd" clip-rule="evenodd" d="M230.289 98.37C230.489 106.351 227.096 109.943 219.713 105.354C215.921 97.7714 225.101 93.3816 230.289 98.37Z" fill="#DEB905"/>
<path fill-rule="evenodd" clip-rule="evenodd" d="M230.289 161.622C230.489 170.601 226.099 172.397 219.114 166.61C218.715 159.427 224.901 156.434 230.289 161.622Z" fill="#DEB905"/>
<path fill-rule="evenodd" clip-rule="evenodd" d="M215.722 52.6769C214.325 62.454 209.336 62.853 202.551 57.6652C202.75 47.489 209.535 47.2895 215.722 52.6769Z" fill="#DEB905"/>
<path fill-rule="evenodd" clip-rule="evenodd" d="M215.722 114.732C216.121 125.307 209.934 126.105 202.551 120.319C202.75 110.342 207.939 109.145 215.722 114.732Z" fill="#DEB905"/>
<path fill-rule="evenodd" clip-rule="evenodd" d="M215.123 20.153C215.322 28.9324 210.932 32.3245 203.149 26.9371C203.349 17.7586 206.941 14.7656 215.123 20.153Z" fill="#DEB905"/>
<path fill-rule="evenodd" clip-rule="evenodd" d="M215.123 84.0035C214.125 90.189 211.132 94.9778 204.945 90.3885C201.952 88.1937 203.149 88.3932 203.748 84.0035C208.338 78.6161 210.134 79.8133 215.123 84.0035Z" fill="#DEB905"/>
<path fill-rule="evenodd" clip-rule="evenodd" d="M214.524 145.26C214.724 151.246 213.127 157.033 205.943 153.84C198.16 150.448 207.34 138.077 214.524 145.26Z" fill="#DEB905"/>
<path fill-rule="evenodd" clip-rule="evenodd" d="M200.156 4.98832C199.158 12.9697 195.167 17.3594 187.584 11.972C182.795 2.59392 193.97 -7.62939e-06 200.156 4.98832Z" fill="#DEB905"/>
<path fill-rule="evenodd" clip-rule="evenodd" d="M200.156 35.7165C200.356 45.4937 194.768 48.4867 186.985 42.5007C186.985 33.9207 192.573 28.3338 200.156 35.7165Z" fill="#DEB905"/>
<path fill-rule="evenodd" clip-rule="evenodd" d="M200.156 98.9685C199.757 102.56 200.954 106.75 196.364 108.147C194.169 108.746 186.985 106.95 186.985 103.957C186.786 94.7783 193.77 92.5834 200.156 98.9685Z" fill="#DEB905"/>
<path fill-rule="evenodd" clip-rule="evenodd" d="M199.557 67.6417C198.959 73.0291 191.974 82.2077 187.584 73.2287C187.584 64.2497 192.373 62.8529 199.557 67.6417Z" fill="#DEB905"/>
<path fill-rule="evenodd" clip-rule="evenodd" d="M199.557 130.894C198.56 138.077 195.167 141.469 188.382 137.079C183.393 127.701 193.97 126.105 199.557 130.894Z" fill="#DEB905"/>
<path fill-rule="evenodd" clip-rule="evenodd" d="M198.36 162.221C198.36 170.002 188.582 170.002 189.779 163.218C190.777 157.631 194.968 159.826 198.36 162.221Z" fill="#DEB905"/>
<path fill-rule="evenodd" clip-rule="evenodd" d="M185.189 20.7514C184.191 28.7328 182.595 30.1295 174.613 30.1295C166.431 20.5519 176.209 11.7724 185.189 20.7514Z" fill="#DEB905"/>
<path fill-rule="evenodd" clip-rule="evenodd" d="M184.591 83.4048C183.593 94.3791 178.803 95.3768 170.821 88.3931C170.821 78.616 178.005 77.8179 184.591 83.4048Z" fill="#DEB905"/>
<path fill-rule="evenodd" clip-rule="evenodd" d="M183.792 51.4796C183.992 58.4633 180.599 65.2474 173.415 59.0619C170.023 56.0689 171.021 53.6745 173.615 50.482C177.606 46.2918 179.801 48.4866 183.792 51.4796Z" fill="#DEB905"/>
<path fill-rule="evenodd" clip-rule="evenodd" d="M183.792 115.131C182.994 121.316 179.801 126.105 173.615 121.516C170.622 119.321 171.819 119.72 172.418 115.131C177.207 109.943 178.803 111.14 183.792 115.131Z" fill="#DEB905"/>
<path fill-rule="evenodd" clip-rule="evenodd" d="M182.595 145.859C182.595 153.242 179.003 155.037 173.216 150.847C173.216 144.861 177.606 140.671 182.595 145.859Z" fill="#DEB905"/>
<path fill-rule="evenodd" clip-rule="evenodd" d="M170.023 3.79106C169.424 11.5729 164.236 21.35 156.054 12.5705C153.659 9.97659 154.058 5.38733 156.453 2.59386C161.043 -2.39447 165.832 0.798063 170.023 3.79106Z" fill="#DEB905"/>
<path fill-rule="evenodd" clip-rule="evenodd" d="M168.825 36.315C169.025 43.4982 164.834 49.0851 157.65 43.8973C154.657 41.7024 156.054 39.7071 156.453 36.315C160.843 31.1271 163.637 32.1248 168.825 36.315Z" fill="#DEB905"/>
<path fill-rule="evenodd" clip-rule="evenodd" d="M168.826 67.0431C169.025 74.8249 164.834 81.8086 157.251 75.224C149.868 68.8389 161.242 59.4609 168.826 67.0431Z" fill="#DEB905"/>
<path fill-rule="evenodd" clip-rule="evenodd" d="M168.227 98.9686C167.628 104.556 161.043 113.335 156.253 104.556C156.253 95.5766 161.043 94.1798 168.227 98.9686Z" fill="#DEB905"/>
<path fill-rule="evenodd" clip-rule="evenodd" d="M167.628 130.894C167.429 137.678 163.038 140.072 157.65 136.481C153.46 128.699 162.639 125.905 167.628 130.894Z" fill="#DEB905"/>
<path fill-rule="evenodd" clip-rule="evenodd" d="M167.029 162.221C167.029 168.606 157.65 171.399 157.65 166.012C158.049 158.828 162.041 158.629 167.029 162.221Z" fill="#DEB905"/>
<path fill-rule="evenodd" clip-rule="evenodd" d="M154.457 21.35C153.859 26.1388 154.058 26.7374 150.666 30.7281C146.475 30.9276 141.087 31.1272 139.89 26.3384C137.695 15.5636 148.67 13.5682 154.457 21.35Z" fill="#DEB905"/>
<path fill-rule="evenodd" clip-rule="evenodd" d="M153.859 52.6769C152.661 62.454 146.874 64.0503 139.491 58.2638C139.491 47.8881 147.273 45.0946 153.859 52.6769Z" fill="#DEB905"/>
<path fill-rule="evenodd" clip-rule="evenodd" d="M152.661 82.6068C152.861 91.3863 148.471 94.7784 140.888 89.391C140.688 80.412 144.679 77.818 152.661 82.6068Z" fill="#DEB905"/>
<path fill-rule="evenodd" clip-rule="evenodd" d="M152.063 113.933C152.262 122.114 148.271 125.107 141.486 120.119C141.287 113.933 146.076 107.947 152.063 113.933Z" fill="#DEB905"/>
<path fill-rule="evenodd" clip-rule="evenodd" d="M151.264 145.859C151.264 153.242 147.672 155.037 141.885 150.847C142.085 145.061 146.276 140.671 151.264 145.859Z" fill="#DEB905"/>
<path fill-rule="evenodd" clip-rule="evenodd" d="M138.892 3.79113C138.094 12.7701 132.905 19.7538 123.925 12.5706C118.737 1.79579 131.708 -3.19254 138.892 3.79113Z" fill="#DEB905"/>
<path fill-rule="evenodd" clip-rule="evenodd" d="M138.293 35.7164C137.495 44.4959 133.105 49.8833 124.524 43.8973C119.535 33.7211 131.309 28.9323 138.293 35.7164Z" fill="#DEB905"/>
<path fill-rule="evenodd" clip-rule="evenodd" d="M137.495 67.6419C137.495 74.2265 132.905 80.6116 126.12 74.8251C123.726 72.6303 123.726 69.8368 125.921 66.8438C129.513 61.6559 133.304 64.6489 137.495 67.6419Z" fill="#DEB905"/>
<path fill-rule="evenodd" clip-rule="evenodd" d="M137.495 162.22C137.695 171.798 131.309 171.998 124.923 166.61C125.122 155.835 130.51 156.833 137.495 162.22Z" fill="#DEB905"/>
<path fill-rule="evenodd" clip-rule="evenodd" d="M136.896 99.567C136.298 103.159 136.098 106.95 131.508 106.95C130.111 106.95 125.721 106.351 125.721 104.356C125.522 95.5763 129.912 93.7805 136.896 99.567Z" fill="#DEB905"/>
<path fill-rule="evenodd" clip-rule="evenodd" d="M136.298 130.894C136.298 137.878 132.107 140.073 126.32 136.481C122.329 128.3 131.109 125.706 136.298 130.894Z" fill="#DEB905"/>
<path fill-rule="evenodd" clip-rule="evenodd" d="M123.127 20.1529C122.129 30.3291 116.142 34.3198 107.561 27.7352C107.561 16.5613 114.346 12.5706 123.127 20.1529Z" fill="#DEB905"/>
<path fill-rule="evenodd" clip-rule="evenodd" d="M121.93 51.4796C122.329 60.4586 116.741 65.447 108.759 59.0619C108.559 49.8834 114.346 43.6978 121.93 51.4796Z" fill="#DEB905"/>
<path fill-rule="evenodd" clip-rule="evenodd" d="M121.929 83.4048C121.131 90.3885 113.149 97.3721 108.759 88.3931C108.958 79.0151 115.743 77.2193 121.929 83.4048Z" fill="#DEB905"/>
<path fill-rule="evenodd" clip-rule="evenodd" d="M121.93 148.453C121.93 156.634 109.357 156.035 109.357 151.047C109.158 141.07 120.134 139.274 121.93 148.453Z" fill="#DEB905"/>
<path fill-rule="evenodd" clip-rule="evenodd" d="M121.331 115.131C120.932 118.523 120.533 123.112 115.743 122.713C114.346 122.713 110.156 121.516 110.156 119.521C109.956 110.741 114.745 109.743 121.331 115.131Z" fill="#DEB905"/>
<path fill-rule="evenodd" clip-rule="evenodd" d="M107.561 4.9884C106.364 16.1623 100.178 17.7585 91.9958 10.5753C92.9936 0.399132 100.178 -2.39434 107.561 4.9884Z" fill="#DEB905"/>
<path fill-rule="evenodd" clip-rule="evenodd" d="M107.561 36.3152C106.564 46.2919 99.5791 50.083 92.5946 41.9021C92.5946 31.5264 100.178 29.132 107.561 36.3152Z" fill="#DEB905"/>
<path fill-rule="evenodd" clip-rule="evenodd" d="M106.963 68.2403C106.364 73.0291 105.765 77.2193 100.178 76.6207C95.7875 76.2216 93.1933 75.623 93.5924 70.6347C94.3906 61.2566 101.974 62.6533 106.963 68.2403Z" fill="#DEB905"/>
<path fill-rule="evenodd" clip-rule="evenodd" d="M106.364 130.894C106.364 137.478 100.776 144.662 94.7897 137.079C92.7941 134.485 92.395 130.495 95.1888 128.1C99.9782 124.509 102.772 127.901 106.364 130.894Z" fill="#DEB905"/>
<path fill-rule="evenodd" clip-rule="evenodd" d="M105.765 98.3698C105.965 104.156 102.971 111.339 95.987 106.351C92.9936 104.156 92.9936 101.363 95.1887 98.1703C97.9826 94.1797 102.173 96.175 105.765 98.3698Z" fill="#DEB905"/>
<path fill-rule="evenodd" clip-rule="evenodd" d="M105.167 161.622C105.366 169.803 100.976 172.796 93.9915 168.007C93.7919 160.624 98.5813 155.237 105.167 161.622Z" fill="#DEB905"/>
<path fill-rule="evenodd" clip-rule="evenodd" d="M91.9959 52.0783C91.3972 57.6652 90.9981 63.0526 83.6145 61.8554C81.8184 61.6559 77.0291 59.8601 77.0291 57.6652C77.8273 47.2895 84.2131 44.2965 91.9959 52.0783Z" fill="#DEB905"/>
<path fill-rule="evenodd" clip-rule="evenodd" d="M91.3972 19.5542C91.7963 29.7304 85.61 34.1202 77.0291 27.7351C77.0291 17.1598 81.6189 13.1692 91.3972 19.5542Z" fill="#DEB905"/>
<path fill-rule="evenodd" clip-rule="evenodd" d="M90.599 83.405C90.599 89.9896 88.2043 93.1821 81.8185 92.1845C73.4371 84.8017 82.2176 74.8251 90.599 83.405Z" fill="#DEB905"/>
<path fill-rule="evenodd" clip-rule="evenodd" d="M90.5991 114.732C90.1999 117.924 91.1977 121.516 87.8053 123.511C83.2154 126.105 77.0291 122.314 77.2287 117.126C77.8274 108.147 86.2088 111.34 90.5991 114.732Z" fill="#DEB905"/>
<path fill-rule="evenodd" clip-rule="evenodd" d="M89.4016 145.26C89.6012 151.446 87.8052 157.033 80.8206 153.84C73.0379 150.448 82.2175 138.077 89.4016 145.26Z" fill="#DEB905"/>
<path fill-rule="evenodd" clip-rule="evenodd" d="M76.2309 36.315C75.6322 41.3033 75.6322 41.9019 72.4393 46.2916C67.0512 45.693 60.865 46.0921 61.4636 39.1084C62.4614 28.7327 70.4437 31.3267 76.2309 36.315Z" fill="#DEB905"/>
<path fill-rule="evenodd" clip-rule="evenodd" d="M75.6322 4.58932C76.0313 15.3641 69.2463 17.559 61.264 11.573C61.264 1.39679 67.8494 -3.39201 75.6322 4.58932Z" fill="#DEB905"/>
<path fill-rule="evenodd" clip-rule="evenodd" d="M75.6321 67.6416C75.0335 74.2262 67.2507 83.6043 62.4613 73.6276C57.8715 63.2519 69.845 61.8551 75.6321 67.6416Z" fill="#DEB905"/>
<path fill-rule="evenodd" clip-rule="evenodd" d="M75.0335 98.9685C74.0357 109.544 69.0468 110.741 61.264 103.957C61.264 94.3792 69.0468 92.9825 75.0335 98.9685Z" fill="#DEB905"/>
<path fill-rule="evenodd" clip-rule="evenodd" d="M74.4348 130.894C73.437 138.077 69.6454 141.27 63.2596 137.079C58.2707 127.701 68.8472 126.105 74.4348 130.894Z" fill="#DEB905"/>
<path fill-rule="evenodd" clip-rule="evenodd" d="M73.2375 161.622C73.437 169.005 69.845 170.8 63.8583 166.61C63.8583 160.624 68.049 156.434 73.2375 161.622Z" fill="#DEB905"/>
<path fill-rule="evenodd" clip-rule="evenodd" d="M60.6653 20.7514C60.0667 26.1388 59.8671 30.9276 53.0822 30.5286C48.4923 30.1295 45.8981 28.7328 46.0976 23.5449C46.6963 13.7678 55.4768 13.9673 60.6653 20.7514Z" fill="#DEB905"/>
<path fill-rule="evenodd" clip-rule="evenodd" d="M60.0667 52.0783C59.6676 56.468 59.8672 57.8648 56.8738 61.4564C51.6853 61.0573 45.8981 62.055 46.2973 55.2708C46.8959 45.6932 54.6787 45.8928 60.0667 52.0783Z" fill="#DEB905"/>
<path fill-rule="evenodd" clip-rule="evenodd" d="M60.0667 84.0034C58.8694 94.7782 44.5012 96.175 45.8981 85.4002C46.8959 76.2216 55.6764 79.0151 60.0667 84.0034Z" fill="#DEB905"/>
<path fill-rule="evenodd" clip-rule="evenodd" d="M58.8694 114.732C58.0711 121.915 54.08 126.504 46.8959 120.917C42.3061 112.138 53.4813 109.344 58.8694 114.732Z" fill="#DEB905"/>
<path fill-rule="evenodd" clip-rule="evenodd" d="M58.0712 145.859C57.4725 150.847 51.4858 159.228 47.4946 150.847C47.6942 143.065 52.0845 142.267 58.0712 145.859Z" fill="#DEB905"/>
<path fill-rule="evenodd" clip-rule="evenodd" d="M45.6985 5.78647C44.9003 12.3711 43.3038 16.5613 36.1198 13.9673C31.9291 12.5706 31.5299 11.1739 32.1286 6.98367C32.9268 -1.59626 41.7074 0.399072 45.6985 5.78647Z" fill="#DEB905"/>
<path fill-rule="evenodd" clip-rule="evenodd" d="M45.499 36.9136C45.499 46.4912 39.5123 48.0874 32.3282 42.5005C32.3282 33.322 38.5145 29.9299 45.499 36.9136Z" fill="#DEB905"/>
<path fill-rule="evenodd" clip-rule="evenodd" d="M44.3016 99.5672C43.9025 102.959 43.5034 107.349 38.714 106.95C37.3171 106.75 33.1264 105.753 33.1264 103.757C32.9268 95.1775 37.7162 94.1798 44.3016 99.5672Z" fill="#DEB905"/>
<path fill-rule="evenodd" clip-rule="evenodd" d="M45.0999 66.8437C45.0999 72.4306 42.9048 77.6185 36.519 73.8273C30.5322 70.4353 38.1154 59.86 45.0999 66.8437Z" fill="#DEB905"/>
<path fill-rule="evenodd" clip-rule="evenodd" d="M43.1043 130.894C43.1043 137.279 33.7251 140.272 33.7251 134.685C34.1242 127.701 38.1154 127.302 43.1043 130.894Z" fill="#DEB905"/>
<path fill-rule="evenodd" clip-rule="evenodd" d="M29.9335 52.6768C29.3348 57.4656 28.7361 61.6558 23.1485 61.0572C18.9578 60.4586 15.9644 59.4609 16.5631 54.6721C17.3613 46.4913 25.9423 46.4913 29.9335 52.6768Z" fill="#DEB905"/>
<path fill-rule="evenodd" clip-rule="evenodd" d="M29.3349 19.5543C29.734 29.531 24.745 33.5217 16.1641 26.9371C16.1641 19.1553 21.9512 11.9721 29.3349 19.5543Z" fill="#DEB905"/>
<path fill-rule="evenodd" clip-rule="evenodd" d="M28.7361 83.4049C27.5388 94.1797 14.7671 93.7806 17.3613 84.6021C18.7582 79.4143 26.3414 78.2171 28.7361 83.4049Z" fill="#DEB905"/>
<path fill-rule="evenodd" clip-rule="evenodd" d="M27.5389 114.732C27.7384 121.715 24.5455 124.309 18.1597 120.319C18.1597 112.736 21.3526 110.342 27.5389 114.732Z" fill="#DEB905"/>
<path fill-rule="evenodd" clip-rule="evenodd" d="M27.5389 146.457C27.5389 152.842 18.1597 155.835 18.1597 150.249C18.5588 143.265 22.5499 143.065 27.5389 146.457Z" fill="#DEB905"/>
<path fill-rule="evenodd" clip-rule="evenodd" d="M14.3681 5.78656C13.1707 16.1623 -1.59654 18.7562 0.199477 6.98376C1.59638 -2.19477 10.3769 9.81688e-05 14.3681 5.78656Z" fill="#DEB905"/>
<path fill-rule="evenodd" clip-rule="evenodd" d="M14.3681 37.1132C13.7694 42.3011 13.5698 46.4913 6.98442 45.6931C5.38796 45.4936 0.598583 44.0969 0.598583 42.1015C0.399026 31.5263 7.98221 29.5309 14.3681 37.1132Z" fill="#DEB905"/>
<path fill-rule="evenodd" clip-rule="evenodd" d="M14.3681 68.2405C13.5698 74.6256 11.9734 78.8158 4.78931 76.4214C0.798158 75.0246 0.199485 73.8274 0.798158 69.8368C1.79595 61.4564 10.3769 62.6536 14.3681 68.2405Z" fill="#DEB905"/>
<path fill-rule="evenodd" clip-rule="evenodd" d="M12.572 99.5672C12.7716 106.95 6.98439 108.147 1.7959 103.957C1.7959 98.1704 8.97997 92.384 12.572 99.5672Z" fill="#DEB905"/>
<path fill-rule="evenodd" clip-rule="evenodd" d="M11.7737 130.894C11.7737 137.279 2.39453 140.272 2.39453 134.685C2.79365 127.701 6.7848 127.302 11.7737 130.894Z" fill="#DEB905"/>
</g>
<defs>
<clipPath id="clip0">
<rect width="451" height="171" fill="white" transform="translate(-0.00012207)"/>
</clipPath>
</defs>
</svg>
