<svg width="48" height="48" viewBox="0 0 48 48" fill="none" xmlns="http://www.w3.org/2000/svg">
<rect width="48" height="48" rx="5" fill="#17181C"/>
<path d="M34.9583 24.6017H12.0417C11.4667 24.6017 11 24.0977 11 23.4767C11 22.8557 11.4667 22.3517 12.0417 22.3517H34.9583C35.5333 22.3517 36 22.8557 36 23.4767C36 24.0977 35.5333 24.6017 34.9583 24.6017Z" fill="white"/>
<path d="M34.9583 15.9766H12.0417C11.4667 15.9766 11 15.4726 11 14.8516C11 14.2306 11.4667 13.7266 12.0417 13.7266H34.9583C35.5333 13.7266 36 14.2306 36 14.8516C36 15.4726 35.5333 15.9766 34.9583 15.9766Z" fill="white"/>
<path d="M34.9583 33.2264H12.0417C11.4667 33.2264 11 32.7224 11 32.1014C11 31.4804 11.4667 30.9764 12.0417 30.9764H34.9583C35.5333 30.9764 36 31.4804 36 32.1014C36 32.7224 35.5333 33.2264 34.9583 33.2264Z" fill="white"/>
</svg>
